<?xml version="1.0" encoding="utf-8"?>
<!-- Generator: Adobe Illustrator 24.1.3, SVG Export Plug-In . SVG Version: 6.00 Build 0)  -->
<svg version="1.1" id="Laag_1" xmlns="http://www.w3.org/2000/svg" xmlns:xlink="http://www.w3.org/1999/xlink" x="0px" y="0px"
	 viewBox="0 0 1316.64 183.25" style="enable-background:new 0 0 1316.64 183.25;" xml:space="preserve">
<style type="text/css">
	.st0{fill:#EC6608;}
	.st1{fill:#253081;}
</style>
<g>
	<path class="st0" d="M806.3,15.27h-32.44l-30.84,91.16c-3.9,11.42-7.55,24.67-7.77,25.36h-0.46c-0.23-0.69-3.89-13.94-7.77-25.36
		l-31.99-91.16h-34.72l58.71,152.16h30.62L806.3,15.27z M612.09,58.22c0,13.48-7.54,19.65-24.9,19.65h-14.85V39.94h15.53
		C603.87,39.94,612.09,45.66,612.09,58.22 M617.57,122.42c0,14.62-9.82,20.33-28.34,20.33h-16.9v-41.8h18.29
		C609.35,100.95,617.57,108.26,617.57,122.42 M650.25,125.17c0-21.71-15.31-33.82-33.36-36.57v-0.46
		c16.45-4.33,26.96-15.31,26.96-34.95c0-28.79-24.44-37.93-52.54-37.93h-50.73v152.16h50.04
		C625.35,167.43,650.25,156.24,650.25,125.17 M463.81,113.06h-42.5l12.8-36.33c4.57-12.8,7.55-24.67,7.99-26.27h0.47
		c0.46,1.59,3.42,13.25,8.22,26.27L463.81,113.06z M412.17,138.88h60.78l10.28,28.56h35.19L458.79,15.27h-31.08l-58.03,152.16h32.44
		L412.17,138.88z M347.52,167.43V15.27h-29.25v80.42c0,11.87,0.92,23.3,0.92,23.99h-0.45c-0.24-0.46-6.86-12.57-16-25.59
		L247.9,15.27h-32.45v152.16h29.25V80.38c0-9.82-0.92-19.87-0.92-20.32h0.47c0.23,0.45,5.94,10.97,14.62,22.84l59.17,84.54H347.52z"
		/>
	<path class="st1" d="M849.64,46.26c3.59,0,6.53,1.01,8.75,3.01V29.92h5.23v44.59c0,2.37,0.43,5.23,0.86,7.02h-5.23
		c-0.22-0.71-0.58-2.65-0.65-3.94c-2.36,2.94-5.81,4.8-9.96,4.8c-8.25,0-14.2-6.52-14.2-17.99
		C834.44,53.51,840.97,46.26,849.64,46.26 M849.71,77.66c3.08,0,6.45-1.72,8.68-4.73V53.93c-2.15-2-4.73-3.15-8.25-3.15
		c-6.52,0-10.11,5.74-10.11,13.48C840.03,72.07,842.82,77.66,849.71,77.66"/>
	<path class="st1" d="M888.35,77.88c4.8,0,8.03-2.15,9.54-3.09l2.15,4.09c-1.73,1.14-5.6,3.51-11.83,3.51
		c-10.82,0-16.27-8.1-16.27-18.28c0-10.1,6.3-17.85,15.48-17.85c9.25,0,14.34,7.17,13.41,17.92h-23.3
		C877.67,71.49,880.61,77.88,888.35,77.88 M895.59,60.02c-0.14-4.87-2.37-9.24-8.32-9.24c-5.52,0-8.53,3.87-9.46,9.24H895.59z"/>
	<path class="st1" d="M947.49,81.53V58.02c0-4.3-1.5-7.03-6.1-7.03c-3.87,0-7.52,2.94-9.96,6.3v24.24h-5.23V47.12h5.23v4.95
		c3.08-3.87,6.95-5.81,11.18-5.81c7.24,0,10.1,4.81,10.1,10.76v24.52H947.49z"/>
	<path class="st1" d="M977.59,77.88c4.81,0,8.03-2.15,9.54-3.09l2.15,4.09c-1.72,1.14-5.59,3.51-11.82,3.51
		c-10.82,0-16.28-8.1-16.28-18.28c0-10.1,6.31-17.85,15.49-17.85c9.24,0,14.34,7.17,13.4,17.92h-23.3
		C966.91,71.49,969.85,77.88,977.59,77.88 M984.83,60.02c-0.14-4.87-2.37-9.24-8.32-9.24c-5.51,0-8.53,3.87-9.46,9.24H984.83z"/>
	<path class="st1" d="M1011.5,46.26c3.58,0,6.52,1.01,8.74,3.01V29.92h5.23v44.59c0,2.37,0.43,5.23,0.86,7.02h-5.24
		c-0.21-0.71-0.57-2.65-0.65-3.94c-2.36,2.94-5.81,4.8-9.95,4.8c-8.25,0-14.2-6.52-14.2-17.99
		C996.3,53.51,1002.82,46.26,1011.5,46.26 M1011.57,77.66c3.08,0,6.45-1.72,8.68-4.73V53.93c-2.15-2-4.73-3.15-8.25-3.15
		c-6.52,0-10.1,5.74-10.1,13.48C1001.9,72.07,1004.68,77.66,1011.57,77.66"/>
	<path class="st1" d="M1050.21,77.88c4.81,0,8.03-2.15,9.54-3.09l2.15,4.09c-1.72,1.14-5.6,3.51-11.83,3.51
		c-10.82,0-16.27-8.1-16.27-18.28c0-10.1,6.31-17.85,15.49-17.85c9.24,0,14.34,7.17,13.4,17.92h-23.3
		C1039.53,71.49,1042.47,77.88,1050.21,77.88 M1057.45,60.02c-0.14-4.87-2.37-9.24-8.32-9.24c-5.52,0-8.53,3.87-9.46,9.24H1057.45z"
		/>
	<path class="st1" d="M1088.63,52c-0.36-0.21-1.22-0.57-3.01-0.57c-5.17,0-8.03,5.95-8.46,7.02v23.08h-5.23V47.12h5.23v5.37
		c1.36-2.29,4.37-6.23,9.18-6.23c2.08,0,3.15,0.5,3.58,0.72L1088.63,52z"/>
	<rect x="1096.8" y="29.92" class="st1" width="5.23" height="51.61"/>
	<path class="st1" d="M1131.85,81.53c-0.21-0.93-0.43-3.08-0.5-4.17c-2.3,2.87-6.1,5.02-10.33,5.02c-5.73,0-9.82-3.65-9.82-9.25
		c0-9.1,10.04-11.82,18.36-11.82h1.5v-3.23c0-5.09-2.15-7.17-6.89-7.17c-3.15,0-5.87,1.01-8.96,3.73l-2.79-3.66
		c3.37-3.15,7.31-4.73,12.11-4.73c7.53,0,11.76,3.58,11.76,11.41v16.06c0,3.44,0.36,6.16,0.79,7.82H1131.85z M1131.07,65.18h-1.5
		c-7.39,0-12.77,2.01-12.77,7.82c0,3.58,3.01,4.87,5.09,4.87c3.87,0,6.95-2,9.18-4.94V65.18z"/>
	<path class="st1" d="M1169.06,81.53V58.02c0-4.3-1.5-7.03-6.09-7.03c-3.88,0-7.53,2.94-9.97,6.3v24.24h-5.23V47.12h5.23v4.95
		c3.09-3.87,6.96-5.81,11.19-5.81c7.24,0,10.1,4.81,10.1,10.76v24.52H1169.06z"/>
	<path class="st1" d="M1197.94,46.26c3.59,0,6.53,1.01,8.75,3.01V29.92h5.23v44.59c0,2.37,0.43,5.23,0.86,7.02h-5.24
		c-0.22-0.71-0.57-2.65-0.64-3.94c-2.37,2.94-5.81,4.8-9.97,4.8c-8.25,0-14.19-6.52-14.19-17.99
		C1182.75,53.51,1189.27,46.26,1197.94,46.26 M1198.01,77.66c3.08,0,6.45-1.72,8.68-4.73V53.93c-2.15-2-4.73-3.15-8.25-3.15
		c-6.52,0-10.1,5.74-10.1,13.48C1188.34,72.07,1191.13,77.66,1198.01,77.66"/>
	<path class="st1" d="M1231.2,82.46c-4.95,0-8.74-1.79-10.9-3.3l2.3-4.02c1.29,0.93,4.38,2.79,8.53,2.79c4.3,0,7.02-1.79,7.02-4.94
		c0-3.16-2.58-4.52-7.59-6.67c-5.38-2.3-9.46-4.73-9.46-10.61c0-5.3,4.02-9.46,10.9-9.46c5.66,0,9.1,2.45,10.18,3.3l-2.58,3.8
		c-1.22-0.93-3.81-2.58-7.67-2.58c-3.66,0-5.74,1.79-5.74,4.73c0,3.22,2.79,4.58,6.6,6.16c5.59,2.37,10.68,4.8,10.68,10.61
		C1243.46,78.52,1238.73,82.46,1231.2,82.46"/>
	<path class="st1" d="M1265.89,77.88c4.81,0,8.04-2.15,9.54-3.09l2.15,4.09c-1.72,1.14-5.59,3.51-11.82,3.51
		c-10.82,0-16.27-8.1-16.27-18.28c0-10.1,6.3-17.85,15.48-17.85c9.25,0,14.34,7.17,13.41,17.92h-23.3
		C1255.22,71.49,1258.16,77.88,1265.89,77.88 M1273.14,60.02c-0.14-4.87-2.37-9.24-8.32-9.24c-5.52,0-8.53,3.87-9.46,9.24H1273.14z"
		/>
	<path class="st1" d="M827.77,167.55c-0.22-0.93-0.43-3.08-0.5-4.16c-2.3,2.87-6.1,5.02-10.32,5.02c-5.74,0-9.82-3.65-9.82-9.24
		c0-9.11,10.03-11.83,18.35-11.83h1.5v-3.23c0-5.08-2.15-7.16-6.88-7.16c-3.15,0-5.88,1-8.96,3.72l-2.8-3.66
		c3.37-3.15,7.31-4.73,12.12-4.73c7.53,0,11.76,3.58,11.76,11.4v16.06c0,3.45,0.35,6.17,0.79,7.82H827.77z M826.98,151.21h-1.5
		c-7.38,0-12.76,2.01-12.76,7.82c0,3.58,3.01,4.88,5.09,4.88c3.87,0,6.96-2.01,9.18-4.95V151.21z"/>
	<path class="st1" d="M850.64,122.82c0,2.15-1.72,3.87-3.87,3.87s-3.87-1.72-3.87-3.87c0-2.15,1.72-3.87,3.87-3.87
		S850.64,120.67,850.64,122.82 M844.11,133.14h5.31v34.41h-5.31V133.14z"/>
	<path class="st1" d="M878.31,138.02c-0.36-0.22-1.22-0.58-3.01-0.58c-5.15,0-8.03,5.95-8.46,7.02v23.08h-5.23v-34.41h5.23v5.38
		c1.36-2.29,4.37-6.24,9.18-6.24c2.08,0,3.15,0.51,3.59,0.72L878.31,138.02z"/>
	<path class="st1" d="M894.29,168.48c-4.95,0-8.74-1.79-10.9-3.3l2.29-4.02c1.29,0.93,4.38,2.79,8.53,2.79
		c4.3,0,7.02-1.79,7.02-4.94c0-3.16-2.58-4.52-7.6-6.67c-5.38-2.3-9.46-4.73-9.46-10.61c0-5.3,4.02-9.46,10.9-9.46
		c5.67,0,9.11,2.44,10.18,3.3l-2.58,3.79c-1.22-0.93-3.81-2.57-7.67-2.57c-3.66,0-5.74,1.79-5.74,4.73c0,3.22,2.79,4.58,6.59,6.16
		c5.59,2.37,10.69,4.81,10.69,10.61C906.56,164.54,901.82,168.48,894.29,168.48"/>
	<path class="st1" d="M928.48,168.41c-11.61,0-15.91-9.96-15.91-18c0-8.03,4.09-18.14,15.7-18.14s16.42,9.97,16.42,18
		C944.69,158.3,940.1,168.41,928.48,168.41 M928.2,136.8c-7.17,0-10.03,6.09-10.03,13.47c0,7.38,3.22,13.62,10.39,13.62
		c7.17,0,10.54-6.1,10.54-13.49C939.1,143.04,935.37,136.8,928.2,136.8"/>
	<path class="st1" d="M971.64,120.52c-0.43-0.22-2.07-0.86-4.52-0.86c-4.58,0-7.17,3.08-7.17,8.74v4.73h8.75v4.16h-8.75v30.25h-5.23
		V137.3h-5.74v-4.16h5.74v-5.09c0-7.89,4.59-12.97,12.55-12.97c3.37,0,5.16,0.64,5.74,0.92L971.64,120.52z"/>
	<path class="st1" d="M986.33,168.41c-5.74,0-8.61-3.37-8.61-9.1V137.3h-5.66v-4.16h5.66v-9.82h5.24v9.82h8.67v4.16h-8.67v21.51
		c0,3.44,1,5.09,4.02,5.09c2.15,0,4.09-1.08,4.66-1.51l1.94,3.95C992.57,166.98,990.06,168.41,986.33,168.41"/>
	<path class="st1" d="M1030.27,168.48c-4.95,0-8.75-1.79-10.9-3.3l2.29-4.02c1.29,0.93,4.38,2.79,8.53,2.79
		c4.3,0,7.02-1.79,7.02-4.94c0-3.16-2.58-4.52-7.6-6.67c-5.38-2.3-9.46-4.73-9.46-10.61c0-5.3,4.02-9.46,10.9-9.46
		c5.66,0,9.11,2.44,10.18,3.3l-2.58,3.79c-1.22-0.93-3.8-2.57-7.67-2.57c-3.65,0-5.74,1.79-5.74,4.73c0,3.22,2.8,4.58,6.6,6.16
		c5.59,2.37,10.69,4.81,10.69,10.61C1042.53,164.54,1037.79,168.48,1030.27,168.48"/>
	<path class="st1" d="M1065.53,168.41c-4.87,0-7.46-1.86-8.74-3.01v17.85h-5.24v-50.11h5.24v3.73c1.79-2.15,5.02-4.59,9.96-4.59
		c8.39,0,13.98,6.6,13.98,18C1080.73,161.1,1074.43,168.41,1065.53,168.41 M1065.68,137.01c-4.81,0-7.95,3.52-8.89,4.81v18.93
		c1.58,1.43,4.02,3.15,8.24,3.15c6.6,0,10.11-5.74,10.11-13.49C1075.14,142.75,1072.2,137.01,1065.68,137.01"/>
	<path class="st1" d="M1102.37,168.41c-11.61,0-15.91-9.96-15.91-18c0-8.03,4.09-18.14,15.7-18.14s16.42,9.97,16.42,18
		C1118.58,158.3,1114,168.41,1102.37,168.41 M1102.09,136.8c-7.17,0-10.03,6.09-10.03,13.47c0,7.38,3.22,13.62,10.39,13.62
		c7.17,0,10.53-6.1,10.53-13.49C1112.98,143.04,1109.26,136.8,1102.09,136.8"/>
	<path class="st1" d="M1144.03,138.02c-0.36-0.22-1.22-0.58-3.01-0.58c-5.15,0-8.03,5.95-8.46,7.02v23.08h-5.23v-34.41h5.23v5.38
		c1.36-2.29,4.37-6.24,9.18-6.24c2.08,0,3.15,0.51,3.58,0.72L1144.03,138.02z"/>
	<path class="st1" d="M1161.8,168.41c-5.74,0-8.6-3.37-8.6-9.1V137.3h-5.66v-4.16h5.66v-9.82h5.23v9.82h8.68v4.16h-8.68v21.51
		c0,3.44,1.01,5.09,4.01,5.09c2.16,0,4.09-1.08,4.67-1.51l1.93,3.95C1168.04,166.98,1165.52,168.41,1161.8,168.41"/>
	<path class="st1" d="M1181.59,115.94v19.93c2.01-2.08,5.3-3.58,8.6-3.58c9.4,0,14.85,7.23,14.85,17.92
		c0,10.47-7.32,18.21-17.35,18.21c-4.73,0-9.03-1.22-11.33-2.66v-49.82H1181.59z M1181.59,162.82c1.37,0.65,3.51,1.08,6.17,1.08
		c7.82,0,11.69-6.6,11.69-13.55c0-7.24-2.8-13.34-10.25-13.34c-2.86,0-6.02,1.65-7.6,3.37V162.82z"/>
	<path class="st1" d="M1226.68,168.41c-11.61,0-15.92-9.96-15.92-18c0-8.03,4.09-18.14,15.7-18.14c11.62,0,16.42,9.97,16.42,18
		C1242.88,158.3,1238.29,168.41,1226.68,168.41 M1226.39,136.8c-7.17,0-10.04,6.09-10.04,13.47c0,7.38,3.23,13.62,10.4,13.62
		c7.17,0,10.54-6.1,10.54-13.49C1237.29,143.04,1233.56,136.8,1226.39,136.8"/>
	<path class="st1" d="M1272.92,167.55v-23.51c0-4.31-1.5-7.03-6.1-7.03c-3.87,0-7.53,2.94-9.97,6.31v24.23h-5.23v-34.41h5.23v4.94
		c3.09-3.87,6.95-5.81,11.19-5.81c7.23,0,10.1,4.81,10.1,10.76v24.51H1272.92z"/>
	<path class="st1" d="M1301.81,132.28c3.58,0,6.53,1,8.75,3.02v-19.36h5.23v44.59c0,2.36,0.43,5.23,0.86,7.02h-5.23
		c-0.22-0.71-0.58-2.65-0.65-3.93c-2.36,2.93-5.81,4.79-9.96,4.79c-8.25,0-14.2-6.52-14.2-18
		C1286.61,139.52,1293.13,132.28,1301.81,132.28 M1301.88,163.68c3.08,0,6.45-1.72,8.68-4.73v-19c-2.15-2-4.73-3.15-8.25-3.15
		c-6.52,0-10.11,5.73-10.11,13.47C1292.2,158.09,1294.99,163.68,1301.88,163.68"/>
	<path class="st1" d="M76.15,0v15.23c42.06,0,76.15,34.09,76.15,76.15c0,42.05-34.1,76.15-76.15,76.15v15.23
		c50.46,0,91.37-40.91,91.37-91.37C167.52,40.91,126.61,0,76.15,0"/>
	<path class="st1" d="M76.15,30.46v15.23c25.24,0,45.69,20.46,45.69,45.69c0,25.23-20.46,45.69-45.69,45.69v15.23
		c33.64,0,60.92-27.27,60.92-60.92C137.07,57.73,109.79,30.46,76.15,30.46"/>
	<path class="st1" d="M76.15,60.92v15.22c8.41,0,15.23,6.83,15.23,15.24s-6.82,15.24-15.23,15.24v15.22
		c16.82,0,30.46-13.64,30.46-30.46S92.97,60.92,76.15,60.92"/>
	<path class="st1" d="M76.15,167.52v-15.23c-33.64,0-60.92-27.27-60.92-60.92S42.5,30.46,76.15,30.46V15.23
		C34.1,15.23,0,49.32,0,91.38C0,133.43,34.1,167.52,76.15,167.52"/>
	<path class="st1" d="M76.15,137.07v-15.23c-16.82,0-30.46-13.64-30.46-30.46c0-16.82,13.63-30.46,30.46-30.46V45.68
		c-25.23,0-45.69,20.46-45.69,45.69S50.92,137.07,76.15,137.07"/>
	<path class="st1" d="M76.15,106.61c-8.41,0-15.23-6.83-15.23-15.24c0-8.41,6.81-15.24,15.23-15.24V106.61z"/>
</g>
</svg>
